<svg width="94" height="86" viewBox="0 0 94 86" fill="none" xmlns="http://www.w3.org/2000/svg">
<g filter="url(#filter0_d)">
<rect x="5.5" y="1.5" width="83" height="75" rx="18.5" stroke="url(#paint0_linear)" stroke-width="3"/>
</g>
<g filter="url(#filter1_d)">
<path fill-rule="evenodd" clip-rule="evenodd" d="M32.3316 23.9617C30.5078 25.1821 30.5686 27.8835 32.4454 29.0207L42.3651 35.0312C44.3903 36.2582 46.9722 34.7653 46.919 32.3979L46.8348 28.6564C53.4478 29.551 58.5455 35.2186 58.5455 42.0768C58.5455 49.5567 52.4819 55.6203 45.0021 55.6203V60.6203C55.2433 60.6203 63.5455 52.3181 63.5455 42.0768C63.5455 32.4153 56.1566 24.4795 46.7214 23.612L46.6387 19.9372C46.5855 17.5699 43.9391 16.1945 41.9711 17.5114L32.3316 23.9617Z" fill="white"/>
</g>
<defs>
<filter id="filter0_d" x="0" y="0" width="94" height="86" filterUnits="userSpaceOnUse" color-interpolation-filters="sRGB">
<feFlood flood-opacity="0" result="BackgroundImageFix"/>
<feColorMatrix in="SourceAlpha" type="matrix" values="0 0 0 0 0 0 0 0 0 0 0 0 0 0 0 0 0 0 127 0"/>
<feOffset dy="4"/>
<feGaussianBlur stdDeviation="2"/>
<feColorMatrix type="matrix" values="0 0 0 0 0 0 0 0 0 0 0 0 0 0 0 0 0 0 0.25 0"/>
<feBlend mode="normal" in2="BackgroundImageFix" result="effect1_dropShadow"/>
<feBlend mode="normal" in="SourceGraphic" in2="effect1_dropShadow" result="shape"/>
</filter>
<filter id="filter1_d" x="27" y="17" width="40.5455" height="51.6203" filterUnits="userSpaceOnUse" color-interpolation-filters="sRGB">
<feFlood flood-opacity="0" result="BackgroundImageFix"/>
<feColorMatrix in="SourceAlpha" type="matrix" values="0 0 0 0 0 0 0 0 0 0 0 0 0 0 0 0 0 0 127 0"/>
<feOffset dy="4"/>
<feGaussianBlur stdDeviation="2"/>
<feColorMatrix type="matrix" values="0 0 0 0 0 0 0 0 0 0 0 0 0 0 0 0 0 0 0.25 0"/>
<feBlend mode="normal" in2="BackgroundImageFix" result="effect1_dropShadow"/>
<feBlend mode="normal" in="SourceGraphic" in2="effect1_dropShadow" result="shape"/>
</filter>
<linearGradient id="paint0_linear" x1="82" y1="84.5" x2="-17" y2="23" gradientUnits="userSpaceOnUse">
<stop stop-color="#615EF8"/>
<stop offset="1" stop-color="#F045DF"/>
</linearGradient>
</defs>
</svg>
